<?xml version="1.0" encoding="UTF-8"?>
<svg width="752pt" height="752pt" version="1.1" viewBox="0 0 752 752" xmlns="http://www.w3.org/2000/svg">
 <defs>
  <clipPath id="b">
   <path d="m271 273h210v339.79h-210z"/>
  </clipPath>
  <clipPath id="a">
   <path d="m236 139.21h280v261.79h-280z"/>
  </clipPath>
 </defs>
 <g clip-path="url(#b)">
  <path d="m376.11 539.88 84.016 72.91h20.781l-98.898-339.19h-12.012l-98.898 339.18h20.973zm87.918 59.719-78.375-67.996 46.73-40.539zm-40-137.2-37.961-30.266 23.625-18.883zm-24.766-84.922-14.949-16.863 7.5469-8.5352zm-23.258-79.773 11.711 40.176-11.77 13.305-11.691-13.191zm-15.887 54.484 7.4805 8.4375-14.824 16.758zm15.844 17.863 28.09 31.684-28.016 22.395-28.098-22.402zm-33.648 43.195 23.699 18.898-38.086 30.438zm33.734 26.898 49.984 39.855-49.922 43.312-49.922-43.316zm-56.379 50.766 46.891 40.684-78.648 68.242z"/>
 </g>
 <path d="m432.37 278.48c0 14.266-5.3828 27.246-14.145 37.195l-4.4102-15.141c3.8242-6.4766 6.0391-14.016 6.0391-22.055 0-24.18-19.672-43.828-43.859-43.828-24.18 0-43.824 19.645-43.824 43.828 0 8.0703 2.1914 15.547 6.0078 22.055l-4.4102 15.141c-8.7578-9.9492-14.109-22.93-14.109-37.195 0-31.066 25.277-56.344 56.34-56.344 31.062 0.007813 56.371 25.281 56.371 56.344z"/>
 <path d="m473.82 278.48c0 33.562-17.016 63.254-42.852 80.863l-3.6992-12.73c20.648-15.578 34.039-40.32 34.039-68.133 0-47.016-38.254-85.277-85.309-85.277-47.016 0-85.305 38.258-85.305 85.277 0 27.809 13.387 52.555 34.066 68.129l-3.7227 12.73c-25.84-17.613-42.852-47.297-42.852-80.863 0-53.93 43.887-97.789 97.82-97.789 53.926 0 97.812 43.863 97.812 97.793z"/>
 <path d="m432.37 278.48c0 14.266-5.3828 27.246-14.145 37.195l-4.4102-15.141c3.8242-6.4766 6.0391-14.016 6.0391-22.055 0-24.18-19.672-43.828-43.859-43.828-24.18 0-43.824 19.645-43.824 43.828 0 8.0703 2.1914 15.547 6.0078 22.055l-4.4102 15.141c-8.7578-9.9492-14.109-22.93-14.109-37.195 0-31.066 25.277-56.344 56.34-56.344 31.062 0.007813 56.371 25.281 56.371 56.344z"/>
 <g clip-path="url(#a)">
  <path d="m515.27 278.48c0 52.523-29.25 98.348-72.289 122.07l-3.5977-12.355c37.852-21.965 63.379-62.879 63.379-109.71-0.003907-69.887-56.879-126.76-126.76-126.76-69.879 0-126.75 56.871-126.75 126.75 0 46.828 25.523 87.746 63.379 109.7l-3.5977 12.355c-43.043-23.707-72.293-69.535-72.293-122.06 0-76.797 62.469-139.27 139.27-139.27s139.27 62.469 139.27 139.27z"/>
 </g>
 <path d="m432.37 278.48c0 14.266-5.3828 27.246-14.145 37.195l-4.4102-15.141c3.8242-6.4766 6.0391-14.016 6.0391-22.055 0-24.18-19.672-43.828-43.859-43.828-24.18 0-43.824 19.645-43.824 43.828 0 8.0703 2.1914 15.547 6.0078 22.055l-4.4102 15.141c-8.7578-9.9492-14.109-22.93-14.109-37.195 0-31.066 25.277-56.344 56.34-56.344 31.062 0.007813 56.371 25.281 56.371 56.344z"/>
 <path d="m473.82 278.48c0 33.562-17.016 63.254-42.852 80.863l-3.6992-12.73c20.648-15.578 34.039-40.32 34.039-68.133 0-47.016-38.254-85.277-85.309-85.277-47.016 0-85.305 38.258-85.305 85.277 0 27.809 13.387 52.555 34.066 68.129l-3.7227 12.73c-25.84-17.613-42.852-47.297-42.852-80.863 0-53.93 43.887-97.789 97.82-97.789 53.926 0 97.812 43.863 97.812 97.793z"/>
</svg>
